:version 1.10
:name ASF
:units
  mass 1
  length 1
  angle deg
:documentation
  ASF file generated by Kaydara
:root
  axis xyz
  order  tx ty tz rx ry rz
  position 0 0 0
  orientation 0 0 0
:bonedata
  begin
    id 1
    name RightUpLegDummy
    direction -0.718183 -0.695806 0.00816078
    length 4.904
    axis 0 0 0 xyz
  end
  begin
    id 2
    name RightUpLeg
    direction 3.53989e-006 -0.995788 0.0916897
    length 17.4976
    axis -3.49089 -0.000906621 0.000287158 xyz
    dof rx ry rz
  end
  begin
    id 3
    name RightLeg
    direction 0.00371093 -0.995096 -0.0988418
    length 16.5821
    axis 3.68512 0.0193738 -0.131023 xyz
    dof rx ry rz
  end
  begin
    id 4
    name RightFoot
    direction 0.000791514 -0.46099 0.887405
    length 3.77069
    axis 4.84075e-005 -0.120479 -0.188788 xyz
    dof rx ry rz
  end
  begin
    id 5
    name RightToes
    direction 0.00124746 -0.014064 0.9999
    length 3.85082
    axis 0.00048216 0.542163 -0.142577 xyz
    dof rx ry rz
  end
  begin
    id 6
    name SpineDummy
    direction 8.3039e-015 1 4.57515e-016
    length 4.6813
    axis 0 0 0 xyz
  end
  begin
    id 7
    name Spine
    direction -4.63632e-008 0.999988 0.00495137
    length 10.1015
    axis -0.00138897 0.000121419 3.25764e-006 xyz
    dof rx ry rz
  end
  begin
    id 8
    name Spine1
    direction 0 0 0
    length 0
    axis -0.00138896 0.000121452 2.39764e-006 xyz
    dof rx ry rz
  end
  begin
    id 9
    name HEadDummy
    direction -3.91456e-008 0.999999 0.00127422
    length 3.43865
    axis -0.00138896 0.000121452 2.39764e-006 xyz
  end
  begin
    id 10
    name HEad
    direction -0.0222688 0.980941 0.193023
    length 5.12695
    axis -0.00138895 0.000121452 2.39764e-006 xyz
    dof rx ry rz
  end
  begin
    id 11
    name LeftShoulder1Dummy
    direction 0.998891 -0.0402508 -0.0244456
    length 3.5433
    axis -0.00138896 0.000121452 2.39764e-006 xyz
  end
  begin
    id 12
    name LeftShoulder1
    direction 0.99951 -0.000327743 0.0313091
    length 4.05031
    axis -0.00138896 0.000121452 2.39764e-006 xyz
    dof rx ry rz
  end
  begin
    id 13
    name LeftArm
    direction 0.998561 -0.00100054 -0.0536182
    length 10.3537
    axis -23.1894 0.134784 0.96751 xyz
    dof rx ry rz
  end
  begin
    id 14
    name LeftForeArm
    direction 0.998903 0.00866434 0.046012
    length 8.70632
    axis -9.91835 -0.06569 -0.177792 xyz
    dof rx ry rz
  end
  begin
    id 15
    name LeftHand
    direction 0.992938 -0.0411636 0.11126
    length 5.32135
    axis -0.00960227 -0.00340091 0.185174 xyz
    dof rx ry rz
  end
  begin
    id 16
    name RightShoulderDummy
    direction -0.998891 -0.0402509 -0.0244414
    length 3.5433
    axis -0.00138896 0.000121452 2.39764e-006 xyz
  end
  begin
    id 17
    name RightShoulder
    direction -0.99951 -0.000327827 0.0313133
    length 4.05031
    axis 0.215806 0.000203644 -0.00680151 xyz
    dof rx ry rz
  end
  begin
    id 18
    name RightArm
    direction -0.998573 -0.000999583 -0.053403
    length 10.3947
    axis -23.2009 -0.134239 -0.9641 xyz
    dof rx ry rz
  end
  begin
    id 19
    name RightForeArm
    direction -0.998898 0.00868026 0.0461306
    length 8.68355
    axis -9.92322 0.0658061 0.178869 xyz
    dof rx ry rz
  end
  begin
    id 20
    name RightHand
    direction -0.992843 -0.0414603 0.112003
    length 5.28593
    axis -0.00960634 0.00330671 -0.185226 xyz
    dof rx ry rz
  end
  begin
    id 21
    name LeftUpLegDummy
    direction 0.718183 -0.695806 0.00816078
    length 4.904
    axis 0 0 0 xyz
  end
  begin
    id 22
    name LeftUpLeg
    direction -6.8115e-006 -0.995793 0.0916336
    length 17.4976
    axis -3.48766 0.00143441 -0.000523914 xyz
    dof rx ry rz
  end
  begin
    id 23
    name LeftLeg
    direction -0.00601357 -0.995091 -0.0987824
    length 16.5821
    axis 3.68177 -0.00654038 -0.00028478 xyz
    dof rx ry rz
  end
  begin
    id 24
    name LeftFoot
    direction -0.00417578 -0.460984 0.887399
    length 3.77069
    axis 1.87232e-006 4.66002e-005 -8.1837e-006 xyz
    dof rx ry rz
  end
  begin
    id 25
    name LeftToes
    direction 0.00818058 -0.00485161 0.999955
    length 3.85048
    axis 1.06246e-005 4.65855e-005 -8.18502e-006 xyz
    dof rx ry rz
  end
:hierarchy
  begin
    root RightUpLegDummy SpineDummy LeftUpLegDummy
    RightUpLegDummy RightUpLeg
    RightUpLeg RightLeg
    RightLeg RightFoot
    RightFoot RightToes
    SpineDummy Spine
    Spine Spine1
    Spine1 HEadDummy LeftShoulder1Dummy RightShoulderDummy
    HEadDummy HEad
    LeftShoulder1Dummy LeftShoulder1
    LeftShoulder1 LeftArm
    LeftArm LeftForeArm
    LeftForeArm LeftHand
    RightShoulderDummy RightShoulder
    RightShoulder RightArm
    RightArm RightForeArm
    RightForeArm RightHand
    LeftUpLegDummy LeftUpLeg
    LeftUpLeg LeftLeg
    LeftLeg LeftFoot
    LeftFoot LeftToes
  end

:SAMPLES-PER-SECOND 30
:FRAME-RANGE 1-3535
:FULLY-SPECIFIED
:DEGREES
1
root  39.237 40.1378 -81.205 1.22499 -39.9184 5.10876
RightUpLeg  -0.629206 -4.25493 -1.78846
RightLeg  10.2233 -14.2128 -2.54515
RightFoot  -12.7546 -0.0380023 3.93137
RightToes  5.38503e-012 1.26228e-014 -6.01869e-014
Spine  -11.8257 2.90541 4.74129
Spine1  13.1199 4.2183 -5.58724
HEad  21.9733 68.4724 -3.47429
LeftShoulder1  0.366153 2.12719 -25.1467
LeftArm  -2.23351 5.38083 -49.3007
LeftForeArm  34.6239 7.41821 -12.8184
LeftHand  -0.0180987 5.53792 5.09945
RightShoulder  2.03279 3.44079 24.0152
RightArm  -21.1777 2.60042 52.2475
RightForeArm  60.608 -2.36498 6.14018
RightHand  0.220616 -6.55267 -22.7175
LeftUpLeg  -6.74872 -0.937559 -2.6871
LeftLeg  5.61146 -7.25472 0.889396
LeftFoot  -3.63092 0.104427 -1.30954
LeftToes  8.9788e-011 3.29689e-010 2.1201e-011
2
root  39.198 40.1387 -81.2311 1.21908 -40.044 5.05532
RightUpLeg  -0.546174 -4.13482 -1.617
RightLeg  10.0767 -14.3683 -2.54659
RightFoot  -12.6538 -0.0378252 4.19006
RightToes  5.38503e-012 1.26228e-014 -6.01869e-014
Spine  -11.9662 2.92401 4.74094
Spine1  13.0618 4.22408 -5.56671
HEad  18.801 62.7518 -5.92351
LeftShoulder1  0.396743 2.02822 -25.1305
LeftArm  -2.30618 5.82256 -49.3573
LeftForeArm  34.5977 7.17817 -12.7965
LeftHand  -0.0157378 5.59282 5.17148
RightShoulder  2.03285 3.43711 24.0568
RightArm  -21.1267 3.30388 53.0363
RightForeArm  61.1478 -2.54256 6.08088
RightHand  0.238388 -6.63005 -22.9265
LeftUpLeg  -6.68435 -0.850735 -2.558
LeftLeg  5.60252 -7.20759 0.89019
LeftFoot  -3.66398 0.103954 -1.30218
LeftToes  8.9788e-011 3.29689e-010 2.1201e-011
3
root  39.1639 40.1433 -81.2573 1.25839 -40.3662 4.98172
RightUpLeg  -0.508644 -4.06005 -1.50336
RightLeg  9.92584 -14.1556 -2.45797
RightFoot  -12.5937 -0.0420004 3.97158
RightToes  5.38503e-012 1.26228e-014 -6.01869e-014
Spine  -12.0099 2.85542 4.63397
Spine1  12.9358 4.11429 -5.42336
HEad  17.1992 55.0439 -7.06204
LeftShoulder1  0.378669 2.08773 -25.1672
LeftArm  -2.31087 6.3342 -49.3762
LeftForeArm  34.6914 6.61346 -12.7837
LeftHand  -0.0235783 5.394 5.2523
RightShoulder  2.02988 3.4572 23.916
RightArm  -21.1737 3.81273 54.061
RightForeArm  61.6382 -2.90442 5.95929
RightHand  0.235076 -6.62481 -22.7409
LeftUpLeg  -6.62156 -0.799764 -2.43261
LeftLeg  5.5404 -6.95648 0.972265
LeftFoot  -3.70077 0.108249 -1.36893
LeftToes  8.9788e-011 3.29689e-010 2.1201e-011
4
root  39.129 40.1457 -81.2866 1.34945 -40.9388 4.91216
RightUpLeg  -0.568248 -3.84517 -1.37679
RightLeg  9.80355 -13.7229 -2.41741
RightFoot  -12.5659 -0.0465638 3.61597
RightToes  5.38503e-012 1.26228e-014 -6.01869e-014
Spine  -11.9737 2.80179 4.48443
Spine1  12.7227 4.03726 -5.34184
HEad  14.7436 46.1326 -8.64154
LeftShoulder1  0.420073 1.95323 -25.1319
LeftArm  -2.34347 6.9443 -49.4075
LeftForeArm  34.6852 5.97941 -12.7548
LeftHand  -0.0341491 5.13495 5.30173
RightShoulder  2.02343 3.39005 24.1309
RightArm  -21.5339 4.19331 54.883
RightForeArm  62.3865 -3.46466 5.65728
RightHand  0.231865 -6.606 -22.7815
LeftUpLeg  -6.60833 -0.595597 -2.23895
LeftLeg  5.50144 -6.59316 0.956225
LeftFoot  -3.76136 0.115049 -1.47464
LeftToes  8.9788e-011 3.29689e-010 2.1201e-011
5
root  39.0998 40.1489 -81.3175 1.41416 -41.6174 4.864
RightUpLeg  -0.686574 -3.69629 -1.27836
RightLeg  9.75582 -13.2037 -2.36705
RightFoot  -12.5897 -0.0554258 2.74518
RightToes  5.38503e-012 1.26228e-014 -6.01869e-014
Spine  -11.8445 2.65543 4.1715
Spine1  12.5224 3.82497 -5.05289
HEad  12.3307 37.0016 -9.94913
LeftShoulder1  0.462084 1.81664 -25.1004
LeftArm  -2.14867 7.29963 -49.5446
LeftForeArm  34.6811 5.5858 -12.8446
LeftHand  -0.0222557 5.41839 5.50388
RightShoulder  2.00946 3.30002 24.3404
RightArm  -22.616 4.47659 55.8146
RightForeArm  63.7827 -4.29199 4.92205
RightHand  0.150354 -6.18939 -22.8493
LeftUpLeg  -6.57092 -0.525195 -2.12122
LeftLeg  5.44061 -6.01415 1.0835
LeftFoot  -3.82375 0.127118 -1.66227
LeftToes  8.9788e-011 3.29689e-010 2.1201e-011
6
root  39.0735 40.1485 -81.3504 1.57152 -42.4776 4.80067
RightUpLeg  -0.932526 -3.55069 -1.19757
RightLeg  9.75485 -12.4006 -2.27325
RightFoot  -12.5173 -0.0582223 2.59343
RightToes  5.38503e-012 1.26228e-014 -6.01869e-014
Spine  -11.8635 2.48354 3.92519
Spine1  12.5057 3.59478 -4.80687
HEad  10.4736 28.1047 -10.4544
LeftShoulder1  0.536129 1.57778 -25.0927
LeftArm  -2.02492 7.40252 -49.6127
LeftForeArm  34.9185 5.47387 -12.8902
LeftHand  -0.0317273 5.19683 5.48882
RightShoulder  2.01106 3.24642 24.6273
RightArm  -22.5612 4.45466 56.3353
RightForeArm  64.0619 -4.838 4.87962
RightHand  0.096349 -5.91938 -22.7322
LeftUpLeg  -6.61951 -0.249327 -1.89494
LeftLeg  5.39839 -5.47013 1.01928
LeftFoot  -3.92056 0.135414 -1.79124
LeftToes  8.9788e-011 3.29689e-010 2.1201e-011
